<?xml version="1.0" encoding="iso-8859-1"?>
<!-- Generator: Adobe Illustrator 19.0.0, SVG Export Plug-In . SVG Version: 6.00 Build 0)  -->
<svg version="1.1" id="Layer_1" xmlns="http://www.w3.org/2000/svg" xmlns:xlink="http://www.w3.org/1999/xlink" x="0px" y="0px"
	 viewBox="0 0 512 512" style="enable-background:new 0 0 512 512;" xml:space="preserve">
<g>
	<g>
		<path d="M402.826,0L0.001,402.827L109.174,512l402.826-402.826L402.826,0z M43.671,402.827l25.789-25.789l32.752,32.752
			l21.834-21.834l-32.752-32.752l25.789-25.789l21.834,21.834l21.834-21.834l-21.834-21.834l25.789-25.789l21.834,21.834
			l21.834-21.834l-21.834-21.834l25.79-25.79l32.752,32.752l21.834-21.834l-32.752-32.752l25.789-25.789l21.834,21.834
			l21.834-21.834l-21.834-21.834l25.789-25.789l21.835,21.834l21.834-21.834l-21.834-21.834l25.79-25.79l32.752,32.752
			l21.834-21.834L377.037,69.46l25.789-25.789l65.504,65.504L109.174,468.33L43.671,402.827z"/>
	</g>
</g>
<g>
</g>
<g>
</g>
<g>
</g>
<g>
</g>
<g>
</g>
<g>
</g>
<g>
</g>
<g>
</g>
<g>
</g>
<g>
</g>
<g>
</g>
<g>
</g>
<g>
</g>
<g>
</g>
<g>
</g>
</svg>
