<?xml version="1.0" encoding="iso-8859-1"?>
<!-- Generator: Adobe Illustrator 18.0.0, SVG Export Plug-In . SVG Version: 6.00 Build 0)  -->
<!DOCTYPE svg PUBLIC "-//W3C//DTD SVG 1.1//EN" "http://www.w3.org/Graphics/SVG/1.1/DTD/svg11.dtd">
<svg version="1.1" id="Capa_1" xmlns="http://www.w3.org/2000/svg" xmlns:xlink="http://www.w3.org/1999/xlink" x="0px" y="0px"
	 viewBox="0 0 374.353 374.353" style="enable-background:new 0 0 374.353 374.353;" xml:space="preserve">
<g>
	<g>
		<path d="M261.299,194.475c-2.991-1.061-6.326-0.126-8.329,2.335l-71.611,88.037c-1.826,2.245-2.198,5.341-0.955,7.954
			c1.243,2.613,3.879,4.278,6.773,4.278h71.611c4.142,0,7.5-3.357,7.5-7.5v-88.037C266.288,198.369,264.29,195.539,261.299,194.475z
			 M251.288,282.08h-48.344l48.344-59.432V282.08z"/>
		<path d="M335.837,0.432c-2.99-1.061-6.327-0.127-8.33,2.335L35.21,362.121c-1.826,2.245-2.197,5.341-0.954,7.954
			c1.243,2.613,3.879,4.278,6.773,4.278h292.297c4.143,0,7.5-3.357,7.5-7.5V7.5C340.825,4.326,338.827,1.496,335.837,0.432z
			 M56.797,359.353L325.825,28.606v45.577h-17.51c-4.142,0-7.5,3.357-7.5,7.5c0,4.143,3.358,7.5,7.5,7.5h17.51v20.164l-17.51,0.002
			c-4.143,0-7.5,3.358-7.5,7.501c0.001,4.142,3.359,7.499,7.501,7.499l17.509-0.002v20.166h-17.508c-4.143,0-7.5,3.357-7.5,7.5
			c0,4.143,3.357,7.5,7.5,7.5h17.508v20.164h-17.508c-4.143,0-7.5,3.357-7.5,7.5c0,4.143,3.357,7.5,7.5,7.5h17.508v20.164h-17.508
			c-4.143,0-7.5,3.357-7.5,7.5c0,4.143,3.357,7.5,7.5,7.5h17.508v20.164h-17.51c-4.142,0-7.5,3.357-7.5,7.5
			c0,4.143,3.358,7.5,7.5,7.5h17.51v20.164h-17.508c-4.143,0-7.5,3.357-7.5,7.5c0,4.143,3.357,7.5,7.5,7.5h17.508v20.166h-17.51
			c-4.142,0-7.5,3.357-7.5,7.5c0,4.143,3.358,7.5,7.5,7.5h17.51v24.018H56.797z"/>
	</g>
</g>
<g>
</g>
<g>
</g>
<g>
</g>
<g>
</g>
<g>
</g>
<g>
</g>
<g>
</g>
<g>
</g>
<g>
</g>
<g>
</g>
<g>
</g>
<g>
</g>
<g>
</g>
<g>
</g>
<g>
</g>
</svg>
